<?xml version="1.0" encoding="UTF-8"?>
<svg width="1200pt" height="1200pt" version="1.1" viewBox="0 0 1200 1200" xmlns="http://www.w3.org/2000/svg">
 <path d="m658.93 777.64c-0.52734 0-1.0781-0.085938-1.6211-0.23828-3.168-0.88672-5.0039-4.1758-4.1055-7.332 0.085938-0.30078 8.6289-30.59 11.16-45.434 1.0781-6.3477-1.9688-24.336-4.9062-41.734-3.6484-21.59-7.4141-43.906-6.457-58.199 0.89844-13.727-8.3398-33.336-16.512-50.641-6.3125-13.379-12.277-26.027-13.848-36.109-3.1914-20.34-30.047-83.16-69.266-79.871-47.027 3.7422-77.449 2.207-93.648-16.848-2.1953-2.5781-4.2734-5.2422-6.3359-7.8594-11.594-14.785-20.734-26.438-46.031-20.617-31.906 7.3672-32.879 10.477-36.504 22.055-6.1797 19.754-6.9375 35.281-4.7539 37.738 10.715 0.61328 11.387 10.5 11.711 15.254 0.097656 1.4883 0.28906 4.2617 0.78125 4.8594 7.1758 2.8789 8.9023 8.4258 10.164 12.48 1.0312 3.3242 1.6914 5.125 4.0547 6.6953 2.7344 1.8242 3.4805 5.5078 1.668 8.2578-1.8242 2.7344-5.4961 3.4688-8.2578 1.668-6-3.9844-7.6328-9.2383-8.8203-13.066-1.0938-3.5156-1.4531-4.2617-3.1328-4.9336-7.5117-3-8.0156-10.598-8.3281-15.133-0.097656-1.4531-0.25391-3.875-0.66016-4.5-4.043-0.21484-7.0664-1.9805-9.0703-4.9453-7.4141-10.957 0.64844-39.434 3.2891-47.902 5.2812-16.906 10.414-22.066 45.191-30.098 32.652-7.5469 46.164 9.6836 58.066 24.875 1.9688 2.4961 3.9492 5.0273 6.0352 7.5 12.852 15.098 41.508 16.055 83.641 12.695 50.184-4.1875 78.816 69.719 81.961 89.891 1.3086 8.3984 6.9258 20.281 12.863 32.879 9.2148 19.512 18.742 39.707 17.617 56.508-0.85156 12.887 2.9648 35.484 6.3242 55.414 3.3828 20.039 6.3125 37.355 4.8945 45.707-2.6406 15.48-11.074 45.406-11.438 46.68-0.75 2.5898-3.125 4.3047-5.7266 4.3047z"/>
 <path d="m425.14 659.99c-2.7461 0-5.2188-1.9219-5.8086-4.7266-0.085937-0.39453-8.6055-39.91-24.828-59.375-19.273-23.137-7.668-59.195-7.1641-60.719 0.43359-1.3086 1.3086-2.4375 2.4727-3.168 8.7969-5.5664 20.578-11.977 26.746-10.969 3.5039 0.57422 6.2656 1.8828 8.7109 3.0352 1.9219 0.89844 3.5742 1.6797 5.3867 2.0391 2.8906 0.57422 28.246 6.0859 28.246 23.387 0 10.535-8.7461 20.363-13.57 24.996 4.1875 14.305 15.215 44.004 29.555 54.156 2.6875 1.8945 3.3125 5.6055 1.4297 8.2812-1.9062 2.6875-5.6172 3.3125-8.293 1.4141-22.379-15.828-34.645-62.363-35.16-64.332-0.57422-2.2422 0.20312-4.6211 1.9922-6.0977 3.1562-2.5938 12.168-11.555 12.168-18.434 0-5.6641-12.168-10.43-18.672-11.711-3.2539-0.64844-5.8438-1.8711-8.1484-2.9531-1.9922-0.9375-3.707-1.7539-5.5664-2.0508-1.8594 0.12109-9.4062 3.7695-16.547 8.1016-1.9062 7.1758-7.2344 32.016 5.5781 47.387 18.109 21.742 26.953 62.797 27.324 64.535 0.68359 3.2148-1.3672 6.3594-4.5859 7.043-0.4375 0.11328-0.85938 0.16016-1.2656 0.16016z"/>
 <path d="m396.28 783.35c-4.2227 0-9.0469-1.8594-15.07-7.2344-3.4922-3.1094-6.8164-4.9922-10.02-6.8047-7.8008-4.4297-15.875-9-12.73-27.035 3.5039-20.102 15.949-32.41 29.125-45.457l3.8164-3.7812c14.555-14.555 19.344-16.621 45.938-28.078l6.3242-2.7344c42.266-18.277 75.574-41.375 74.977-48.312-4.5703-14.785-4.8359-39.527 2.0742-52.703 4.8125-9.1562 3.8867-17.363-3.0977-27.445-9.625-13.906-0.91016-33.672-0.52734-34.512 1.3438-2.9883 4.8711-4.3086 7.8477-2.9883 3 1.3438 4.332 4.8594 3 7.8477-1.7773 4.0078-5.3398 15.938-0.53906 22.871 9.457 13.668 10.715 26.664 3.8516 39.742-5.3047 10.117-5.0273 31.43-1.2344 43.715 7.1055 22.992-66.758 56.258-81.637 62.699l-6.3359 2.7344c-25.957 11.195-29.293 12.637-42.227 25.57l-3.8633 3.8281c-12.805 12.672-22.922 22.68-25.766 39.035-1.7031 9.7812-0.046875 10.715 6.875 14.652 3.3945 1.9219 7.6328 4.3203 12.07 8.2695 6.2539 5.5547 7.5859 4.7891 11.977 2.207 2.0391-1.1875 4.5977-2.6758 7.7539-3.5156 4.0312-1.0664 6.4688-4.3203 6.4219-5.4102-3.0859-1.7773-4.6797-4.0664-4.9805-6.7812-0.48047-4.4023 2.6289-7.4531 5.6172-10.391 2.8086-2.7461 6.3125-6.1914 8.4727-11.328 6.9844-16.621 16.43-29.855 67.883-36.227 4.5352-1.9062 28.621-12.121 50.328-22.188 20.879-9.707 22.441-22.129 25.824-49.355l0.20312-1.6094c2.3867-19.105 10.262-37.117 17.207-53.004 3.9258-8.9883 7.6328-17.473 10.066-25.367 2.5781-8.375 3.5273-12.602 3.875-14.617-1.1641-2.2422-0.80469-5.0625 1.0664-6.9492 1.9453-1.957 5.4961-2.4609 7.8242-1.043 4.5977 2.7617 4.3555 7.4023-1.4023 26.102-2.6289 8.543-6.4688 17.328-10.535 26.641-6.9492 15.887-14.125 32.316-16.309 49.715l-0.20312 1.6094c-3.4688 27.816-5.7617 46.199-32.629 58.668-24.156 11.219-51.215 22.57-51.48 22.691-0.50391 0.21484-1.043 0.34766-1.5859 0.42188-49.465 6-54.395 17.746-59.172 29.125-3.0859 7.3555-7.9219 12.098-11.113 15.227-0.16797 0.16797-0.33594 0.32422-0.51562 0.50391 2.6875 2.7227 3.8633 6.2656 3.3008 10.043-0.99609 6.6602-7.3555 12.996-15.121 15.059-1.6211 0.42188-3.1797 1.332-4.8242 2.2812-3.375 1.957-6.8164 3.6133-10.801 3.6133z"/>
 <path d="m591.96 687.84c-12.527 0-17.172-4.2734-18.574-6.1094-2.0039-2.6055-1.5117-6.3242 1.0938-8.3281 2.4609-1.8945 5.9297-1.5859 8.0039 0.68359 0.67188 0.45703 7.6562 4.8008 31.43-1.7031 3.2031-0.92578 6.4453 0.99609 7.2969 4.1641 0.875 3.168-0.98438 6.4336-4.1641 7.2969-10.688 2.9414-18.859 3.9961-25.086 3.9961z"/>
 <path d="m517.77 986.2c-2.6055 0-4.7891-0.49219-6.3828-1.6211-0.76953-0.53906-3.5508-0.9375-5.3984-1.2109-5.0039-0.71875-11.23-1.6211-14.578-6.9492-2.293-3.6602-2.5078-8.2812-0.66016-14.16 3.3359-10.586 12.707-17.387 21.758-23.988 7.3555-5.3398 14.293-10.391 17.762-16.969 7.2969-13.859 5.5312-52.441-31.535-82.969-39.133-32.23-73.152-74.242-73.488-74.652-2.0625-2.5664-1.668-6.3008 0.89844-8.3633s6.3125-1.6562 8.3633 0.88672c0.33594 0.40625 33.625 41.508 71.785 72.938 40.895 33.684 44.762 78.203 34.5 97.691-4.7539 9.0234-13.152 15.145-21.277 21.059-7.8477 5.7109-15.254 11.113-17.426 17.953-1.0078 3.2148-0.60156 4.2461-0.60156 4.2461 0.66016 0.70703 4.2617 1.2227 6.1914 1.5 3.6602 0.52734 7.4414 1.0664 10.512 3.2266 3.8633 0.74219 27.121-8.3633 58.5-27.984 20.148-12.602 31.285-31.883 30.109-39.648-0.22656-1.5117-0.83984-2.1719-2.3984-2.5781-18.973-4.9805-31.367-36.203-51.984-104.27-16.691-55.117-44.41-60.109-44.688-60.156-3.2148-0.50391-5.4727-3.5039-5.0039-6.7305 0.46875-3.2266 3.3945-5.4961 6.6133-5.0508 1.4414 0.19141 35.328 5.2695 54.469 68.484 14.113 46.598 29.102 92.398 43.621 96.215 6.1328 1.6211 10.199 6.1094 11.137 12.301 2.2422 14.746-13.715 37.848-35.566 51.504-15.227 9.5469-48.805 29.297-65.23 29.297z"/>
 <path d="m521.34 921.34c-1.0664 0-2.1484-0.28906-3.1211-0.88672-1.9062-1.1875-46.922-29.426-59.617-68.41-11.387-34.98-36.469-51.742-36.719-51.91-2.7461-1.7891-3.5039-5.4844-1.7148-8.2305 1.8008-2.7461 5.4844-3.5391 8.2422-1.7148 1.1758 0.75781 28.836 19.262 41.496 58.176 11.34 34.812 54.145 61.715 54.574 61.98 2.7852 1.7266 3.6484 5.3867 1.9219 8.1836-1.1367 1.8047-3.082 2.8125-5.0625 2.8125z"/>
 <path d="m463.07 1009.2c-3.2773 0-7.5977-1.3789-9.9375-5.3984-4.1172-7.0781 1.0312-16.523 5.2578-23.004 10.152-15.562 13.766-50.785-19.727-79.129-32.027-27.098-72.961-73.414-78.84-80.137-4.043-2.4375-18.371-12.289-25.789-33.07-8.1602-22.883-8.5938-25.43 2.9297-40.262 2.0156-2.6055 5.7344-3.0859 8.3398-1.0547 2.5938 2.0156 3.0703 5.7461 1.0547 8.3398-7.8477 10.117-7.8477 10.117-1.1289 28.969 6.9609 19.512 21.035 27.086 21.18 27.168 0.64844 0.33594 1.2344 0.79297 1.7148 1.3438 0.44531 0.51562 45.059 51.574 78.215 79.633 35.062 29.664 37.5 70.922 21.996 94.691-5.2695 8.0898-4.8242 10.801-4.8125 10.824 3.3477-0.20312 5.8438 1.8945 6.0352 5.1836 0.20312 3.2773-2.5547 5.6992-5.8438 5.8906-0.1875 0.011719-0.41406 0.011719-0.64453 0.011719z"/>
 <path d="m452.09 526.75c-0.86328 0-1.7266-0.17969-2.5547-0.57422-2.9648-1.4141-4.2227-4.9688-2.8203-7.9336 2.2578-4.7539 8.1133-19.008 8.1133-27.863 0-6.8164 1.6562-11.039 2.9766-14.438 1.2734-3.2656 2.1133-5.4375 1.4414-9.8633-0.50391-3.2539 1.7266-6.2891 4.9688-6.7812 3.2891-0.50391 6.2891 1.7383 6.7812 4.9688 1.1758 7.5977-0.57422 12.059-2.1133 15.996-1.1641 2.9766-2.1602 5.543-2.1602 10.117 0 13.355-8.8906 32.184-9.2656 32.977-1.0117 2.1445-3.1484 3.3945-5.3672 3.3945z"/>
 <path d="m501.61 639.45c-1.1758 0-2.3516-0.34766-3.3945-1.0664l-23.902-16.645c-2.6992-1.8828-3.3594-5.5938-1.4883-8.2812s5.5664-3.3594 8.2812-1.4883l23.902 16.633c2.6992 1.8828 3.3594 5.5938 1.4883 8.2812-1.1562 1.6758-3.0039 2.5664-4.8867 2.5664z"/>
 <path d="m775.29 1013.1c-1.1055 0-2.2188-0.30078-3.2031-0.9375-2.7617-1.7539-3.5742-5.4375-1.8242-8.207 1.4023-2.2305 3.9258-7.8008 2.7227-10.895-0.19141-0.48047-0.76953-1.9688-4.4648-2.9648-20.125-5.4258-32.438-29.594-32.438-40.945 0-22.391-4.2617-36.238-12.684-41.148-13.211-7.7031-11.652-25.789-9.8281-46.738 0.94922-11.016 1.9336-22.414 1.0312-33.527-2.2305-27.277-4.8594-28.02-48.781-40.391l-2.3047-0.64844c-43.922-12.406-83.281-0.73047-83.664-0.61328-3.1445 0.97266-6.4688-0.80469-7.4141-3.9492-0.96094-3.1445 0.80469-6.457 3.9492-7.4141 1.7383-0.53906 42.926-12.84 90.371 0.51562l2.293 0.66016c44.051 12.395 54.516 15.348 57.422 50.879 0.98438 12.109-0.097656 24.539-1.043 35.508-1.3906 16.223-2.7227 31.535 3.9844 35.449 18.59 10.824 18.59 41.375 18.59 51.406 0 6.6602 9.4062 25.633 23.629 29.461 7.8711 2.125 11.137 6.707 12.469 10.188 3.6836 9.5156-3.0234 20.375-3.793 21.574-1.1562 1.7773-3.0664 2.7383-5.0195 2.7383z"/>
 <path d="m768.3 1056h-306.49c-3.2891 0-5.9531-2.6758-5.9531-5.9531 0-3.2773 2.6641-5.9531 5.9531-5.9531h306.49c3.2773 0 5.9531 2.6758 5.9531 5.9531 0 3.2773-2.6641 5.9531-5.9531 5.9531z"/>
 <path d="m768.3 1080.8h-306.49c-3.2891 0-5.9531-2.6758-5.9531-5.9531s2.6641-5.9531 5.9531-5.9531h306.49c3.2773 0 5.9531 2.6758 5.9531 5.9531s-2.6641 5.9531-5.9531 5.9531z"/>
</svg>
